<svg xmlns="http://www.w3.org/2000/svg" width="130" height="40" viewBox="0 0 130 40">
  <g id="Group_97" data-name="Group 97" transform="translate(-1168 -198)">
    <text id="Get_it_on" data-name="Get it on" transform="translate(1215 213)" fill="#b0bfc7" font-size="8" font-family="SegoeUI, Segoe UI"><tspan x="0" y="0">Get it on</tspan></text>
    <g id="appstore" transform="translate(1168 198)">
      <rect id="Rectangle_69" data-name="Rectangle 69" width="128" height="38" rx="3" transform="translate(1 1)" fill="none" stroke="#b0bfc7" stroke-width="2" opacity="0.66"/>
      <path id="Path_385" data-name="Path 385" d="M32.682,10.062a.349.349,0,0,1,.419.35,4.479,4.479,0,0,1-1.035,2.795,3.758,3.758,0,0,1-2.6,1.391.347.347,0,0,1-.378-.356,4.262,4.262,0,0,1,1.057-2.716A4.546,4.546,0,0,1,32.682,10.062Zm2.264,8.523a4.443,4.443,0,0,0-.582,2.16,4.346,4.346,0,0,0,1.85,3.558,1.1,1.1,0,0,1,.484,1.284,9.972,9.972,0,0,1-1.069,1.96c-.808,1.215-1.655,2.4-3,2.423a3.348,3.348,0,0,1-1.521-.362,3.969,3.969,0,0,0-1.723-.41,4.208,4.208,0,0,0-1.814.424A3.793,3.793,0,0,1,26.154,30c-1.28.048-2.259-1.3-3.1-2.5-1.673-2.457-2.976-6.924-1.229-9.964a4.8,4.8,0,0,1,4.04-2.476,5.252,5.252,0,0,1,2.033.513h0a3.711,3.711,0,0,0,1.225.357,4.163,4.163,0,0,0,1.312-.376A5.585,5.585,0,0,1,33,15a4.448,4.448,0,0,1,1.92.567,4.574,4.574,0,0,1,.874.618,1,1,0,0,1-.127,1.446A4.491,4.491,0,0,0,34.946,18.585ZM80.12,26.867a.735.735,0,0,1,.338.637.816.816,0,0,1-.455.767,2.724,2.724,0,0,1-1.3.247,5.152,5.152,0,0,1-.728-.052q-.351-.052-.663-.13t-.572-.182a3.043,3.043,0,0,1-.39-.169l-.637,1.625a4.207,4.207,0,0,0,.481.195q.312.091.715.182t.871.13a7.581,7.581,0,0,0,1.014.065,5.892,5.892,0,0,0,1.456-.169,3.165,3.165,0,0,0,1.131-.52,2.441,2.441,0,0,0,.741-.91,3,3,0,0,0,.26-1.3,2.1,2.1,0,0,0-.338-1.235,2.84,2.84,0,0,0-.845-.793,4.6,4.6,0,0,0-1.079-.52q-.585-.208-1.092-.4a4.613,4.613,0,0,1-.832-.442.768.768,0,0,1-.338-.65.7.7,0,0,1,.351-.624,1.868,1.868,0,0,1,1.014-.234,4.868,4.868,0,0,1,.715.052,5.018,5.018,0,0,1,.663.117,2.7,2.7,0,0,1,.546.169,2.581,2.581,0,0,1,.4.182l.611-1.612a4.223,4.223,0,0,0-1.274-.416,8.142,8.142,0,0,0-1.625-.156,5.21,5.21,0,0,0-1.365.169,3.05,3.05,0,0,0-1.053.507,2.25,2.25,0,0,0-.676.845,2.8,2.8,0,0,0-.234,1.183,2.236,2.236,0,0,0,.338,1.287,3,3,0,0,0,.832.819,4.869,4.869,0,0,0,1.092.52q.585.195,1.079.39A4.028,4.028,0,0,1,80.12,26.867ZM48.924,30l.741-1.937h3.068L53.513,30h2.041l-3.575-9.165H50.562L47,30Zm3.354-3.458H50.2l.689-1.885L51.2,23.2h.065l.312,1.443Zm5.515-3.367h-1.3v9.412h1.82V29.9a3.842,3.842,0,0,0,.65.221,2.867,2.867,0,0,0,.767.091,3.729,3.729,0,0,0,1.443-.26,2.9,2.9,0,0,0,1.066-.767,3.467,3.467,0,0,0,.65-1.2,5.177,5.177,0,0,0,.221-1.56,4.029,4.029,0,0,0-.689-2.613,2.529,2.529,0,0,0-2.067-.832,2.815,2.815,0,0,0-1.248.26,2.656,2.656,0,0,0-.936.78h-.156Zm1.04,1.612a1.448,1.448,0,0,1,.962-.286,1.21,1.21,0,0,1,1.1.507,2.39,2.39,0,0,1,.338,1.365,2.915,2.915,0,0,1-.429,1.768,1.567,1.567,0,0,1-1.313.546,1.956,1.956,0,0,1-.689-.1,1.756,1.756,0,0,1-.494-.286V25.645A1.729,1.729,0,0,1,58.833,24.787Zm5.76-1.612h1.3l.221.845h.156a2.656,2.656,0,0,1,.936-.78,2.816,2.816,0,0,1,1.248-.26,2.529,2.529,0,0,1,2.067.832,4.029,4.029,0,0,1,.689,2.613,5.18,5.18,0,0,1-.221,1.56,3.468,3.468,0,0,1-.65,1.2,2.9,2.9,0,0,1-1.066.767,3.728,3.728,0,0,1-1.443.26,2.867,2.867,0,0,1-.767-.091,3.838,3.838,0,0,1-.65-.221v2.691h-1.82Zm3.3,1.326a1.448,1.448,0,0,0-.962.286,1.728,1.728,0,0,0-.52.858V28.3a1.756,1.756,0,0,0,.494.286,1.956,1.956,0,0,0,.689.1,1.567,1.567,0,0,0,1.313-.546,2.914,2.914,0,0,0,.429-1.768A2.391,2.391,0,0,0,69,25.008,1.211,1.211,0,0,0,67.894,24.5ZM82.93,23.175h1.04v-.936l1.82-.481v1.417h1.833V24.7H85.79v2.366a3.245,3.245,0,0,0,.156,1.183.651.651,0,0,0,.65.351,2.8,2.8,0,0,0,.507-.039,2.728,2.728,0,0,0,.442-.156l.377,1.365a5.712,5.712,0,0,1-.962.312,4.385,4.385,0,0,1-1.04.13,1.959,1.959,0,0,1-1.482-.494A2.326,2.326,0,0,1,83.97,28.1V24.7H82.93Zm6.519.767a3.737,3.737,0,0,0-.9,2.652,4.752,4.752,0,0,0,.208,1.43,3.22,3.22,0,0,0,.637,1.144,2.952,2.952,0,0,0,1.079.754,3.944,3.944,0,0,0,1.534.273,4.008,4.008,0,0,0,1.456-.247,2.888,2.888,0,0,0,1.092-.715,3.15,3.15,0,0,0,.676-1.131,4.589,4.589,0,0,0,.234-1.508,4.42,4.42,0,0,0-.221-1.43,3.078,3.078,0,0,0-.637-1.144,2.88,2.88,0,0,0-1.079-.767,3.907,3.907,0,0,0-1.521-.273A3.33,3.33,0,0,0,89.449,23.942ZM90.515,27.4a3.426,3.426,0,0,1-.091-.806A2.472,2.472,0,0,1,90.84,25a1.469,1.469,0,0,1,1.17-.494,1.558,1.558,0,0,1,.728.156,1.22,1.22,0,0,1,.494.442,1.7,1.7,0,0,1,.273.663,3.55,3.55,0,0,1,.091.832q0,2.08-1.586,2.08a1.459,1.459,0,0,1-.728-.169,1.514,1.514,0,0,1-.494-.442A2.173,2.173,0,0,1,90.515,27.4Zm10.468-2.561a2.453,2.453,0,0,0-.78-.13,1.577,1.577,0,0,0-.949.273,1.276,1.276,0,0,0-.481.689V30h-1.82V23.175h1.43l.195.949h.169a2.019,2.019,0,0,1,.689-.819,1.8,1.8,0,0,1,1-.286,2.732,2.732,0,0,1,.806.143Zm5.879,5.122a4.038,4.038,0,0,0,1.209-.585l-.624-1.144a3.408,3.408,0,0,1-.754.364,3.288,3.288,0,0,1-1.092.169,2.14,2.14,0,0,1-1.469-.416,1.963,1.963,0,0,1-.507-1.313h4.55a4.884,4.884,0,0,0,.1-.676,5.048,5.048,0,0,0,.039-.6,3.017,3.017,0,0,0-.26-1.326,2.161,2.161,0,0,0-.663-.858,2.473,2.473,0,0,0-.949-.455,4.142,4.142,0,0,0-1.079-.143,3.515,3.515,0,0,0-2.6.923,3.62,3.62,0,0,0-.923,2.691,3.942,3.942,0,0,0,.819,2.639,3.2,3.2,0,0,0,2.574.962A5.456,5.456,0,0,0,106.862,29.961Zm-2.717-5.109a1.514,1.514,0,0,1,1.2-.442,1.2,1.2,0,0,1,1.027.416,1.635,1.635,0,0,1,.26,1.131H103.69A1.854,1.854,0,0,1,104.145,24.852Z" fill="#b0bfc7" fill-rule="evenodd"/>
    </g>
  </g>
</svg>
