<svg xmlns="http://www.w3.org/2000/svg" width="133.008" height="17.906" viewBox="0 0 133.008 17.906">
  <path id="Path_353" data-name="Path 353" d="M0,0V2.707H65.487V0ZM69.476,2.707h51.5V0h-51.5ZM0,6.972V17.681H20.192V14.791H4.072V9.7h11.7V6.972Zm25.64-2.01a3.308,3.308,0,0,0-1.282-.427c-.259-.028-.494-.047-.7-.061s-.4-.019-.551-.019a3.308,3.308,0,0,0-1.282.67,1.583,1.583,0,0,0-.59,1.2V17.686h3.887V8.174a11.138,11.138,0,0,0,2.206,1.955l3.907,3.052q1.017.827,1.93,1.516c.6.469,1.177.9,1.72,1.293s.946.689,1.21.888l.4.295a4.75,4.75,0,0,0,1.875.67,4.028,4.028,0,0,0,2.035-.163,2.266,2.266,0,0,0,.662-.587,1.516,1.516,0,0,0,.345-.937V4.612H37.332v9.853Zm18.83-.345a1.878,1.878,0,0,0-1.527.609,2.062,2.062,0,0,0-.51,1.425v8.993a1.875,1.875,0,0,0,.59,1.607,2,2,0,0,0,1.1.427H62.793a1.5,1.5,0,0,0,1.69-1.69V9.884H50.729v2.545h9.851v2.545H46.494V7.339H64.47V4.612ZM65.5,17.686h4.069V4.612h-4.08V17.681ZM74.99,4.963a3.308,3.308,0,0,0-1.282-.427c-.259-.028-.493-.047-.7-.061s-.4-.019-.551-.019a3.308,3.308,0,0,0-1.282.67,1.583,1.583,0,0,0-.593,1.2V17.681h3.907V8.174a11.021,11.021,0,0,0,2.206,1.955L80.6,13.181q1.017.827,1.93,1.516c.6.469,1.177.9,1.72,1.293s.946.689,1.21.888l.4.295a4.75,4.75,0,0,0,1.875.67,4.028,4.028,0,0,0,2.035-.163,2.233,2.233,0,0,0,.664-.587,1.516,1.516,0,0,0,.345-.937V4.612H86.7v9.853Zm16.793-.345V7.325h20.195V4.612Zm0,5.089v7.973h20.195V14.791H95.858V12.429h11.706V9.7ZM133.008,0H120.977V2.727h0V17.681h4.072V2.727h7.959V0Z" fill="#b0bfc7"/>
</svg>
