<svg xmlns="http://www.w3.org/2000/svg" width="130" height="40" viewBox="0 0 130 40">
  <g id="Group_98" data-name="Group 98" transform="translate(-1168 -260)">
    <rect id="Rectangle_68" data-name="Rectangle 68" width="128" height="38" rx="3" transform="translate(1169 261)" fill="none" stroke="#b0bfc7" stroke-width="2"/>
    <path id="Path_384" data-name="Path 384" d="M26.845,23.864l3.9-2.106a2,2,0,0,0,0-3.519l-3.728-2.014-3.6,3.907ZM15.951,10.247l10.158,5.488L22.74,19.393l-8.488-9.242A1.975,1.975,0,0,1,15.951,10.247Zm-2.506.5,8.617,9.383-8.509,9.242A1.973,1.973,0,0,1,13,27.99V12.007A1.975,1.975,0,0,1,13.444,10.747Zm2.506,19a1.974,1.974,0,0,1-1.531.155l8.32-9.037,3.2,3.485Zm29.832-4.534H49.5V29.3a3.376,3.376,0,0,1-.663.4,5.915,5.915,0,0,1-.754.273,6.02,6.02,0,0,1-.806.156,6.592,6.592,0,0,1-.819.052,5.515,5.515,0,0,1-1.755-.273,3.861,3.861,0,0,1-1.417-.845,4.157,4.157,0,0,1-.949-1.482A6.048,6.048,0,0,1,42,25.45a5.169,5.169,0,0,1,.416-2.184,4.076,4.076,0,0,1,2.574-2.288,5.513,5.513,0,0,1,1.651-.26,7.478,7.478,0,0,1,1.482.13,8.281,8.281,0,0,1,1.014.234l-.4,1.6a5.588,5.588,0,0,0-.793-.195,6.522,6.522,0,0,0-1.105-.078,3.518,3.518,0,0,0-1.118.169,2.175,2.175,0,0,0-.884.52,2.42,2.42,0,0,0-.585.949,4.25,4.25,0,0,0-.208,1.417,4.045,4.045,0,0,0,.208,1.378,2.753,2.753,0,0,0,.559.949,2.244,2.244,0,0,0,.832.533,2.886,2.886,0,0,0,.988.169,3.227,3.227,0,0,0,.7-.078,1.7,1.7,0,0,0,.611-.247V26.594l-2.158-.208Zm4.838,1.378a3.737,3.737,0,0,1,.9-2.652,3.33,3.33,0,0,1,2.561-.962,3.907,3.907,0,0,1,1.521.273,2.881,2.881,0,0,1,1.079.767,3.077,3.077,0,0,1,.637,1.144,4.417,4.417,0,0,1,.221,1.43A4.588,4.588,0,0,1,57.3,28.1a3.149,3.149,0,0,1-.676,1.131,2.885,2.885,0,0,1-1.092.715,4.005,4.005,0,0,1-1.456.247,3.944,3.944,0,0,1-1.534-.273,2.952,2.952,0,0,1-1.079-.754,3.22,3.22,0,0,1-.637-1.144A4.755,4.755,0,0,1,50.621,26.594Zm1.872,0a3.431,3.431,0,0,0,.091.806,2.176,2.176,0,0,0,.273.663,1.514,1.514,0,0,0,.494.442,1.459,1.459,0,0,0,.728.169q1.586,0,1.586-2.08a3.545,3.545,0,0,0-.091-.832A1.7,1.7,0,0,0,55.3,25.1a1.219,1.219,0,0,0-.494-.442,1.558,1.558,0,0,0-.728-.156,1.469,1.469,0,0,0-1.17.494A2.472,2.472,0,0,0,52.493,26.594Zm7.036-2.652a3.737,3.737,0,0,0-.9,2.652,4.752,4.752,0,0,0,.208,1.43,3.218,3.218,0,0,0,.637,1.144,2.951,2.951,0,0,0,1.079.754,3.944,3.944,0,0,0,1.534.273,4.006,4.006,0,0,0,1.456-.247,2.887,2.887,0,0,0,1.092-.715,3.15,3.15,0,0,0,.676-1.131,4.588,4.588,0,0,0,.234-1.508,4.42,4.42,0,0,0-.221-1.43,3.079,3.079,0,0,0-.637-1.144,2.881,2.881,0,0,0-1.079-.767,3.907,3.907,0,0,0-1.521-.273A3.33,3.33,0,0,0,59.528,23.942ZM60.595,27.4a3.425,3.425,0,0,1-.091-.806,2.472,2.472,0,0,1,.416-1.6,1.469,1.469,0,0,1,1.17-.494,1.558,1.558,0,0,1,.728.156,1.22,1.22,0,0,1,.494.442,1.7,1.7,0,0,1,.273.663,3.55,3.55,0,0,1,.091.832q0,2.08-1.586,2.08a1.458,1.458,0,0,1-.728-.169,1.513,1.513,0,0,1-.494-.442A2.171,2.171,0,0,1,60.595,27.4Zm12.613,2.34a2.731,2.731,0,0,1-.858,2.223,3.7,3.7,0,0,1-2.431.715,7.582,7.582,0,0,1-1.638-.143,4.1,4.1,0,0,1-.949-.3q.169-.52.247-.832t.13-.455q.039-.156.052-.195l.013-.039a6.665,6.665,0,0,0,.754.312,3.032,3.032,0,0,0,1.079.169,3.169,3.169,0,0,0,.884-.1,1.292,1.292,0,0,0,.559-.312,1.009,1.009,0,0,0,.286-.481,2.093,2.093,0,0,0,.091-.637v-.507H71.27a1.39,1.39,0,0,1-.715.533,3.525,3.525,0,0,1-1.131.156,2.7,2.7,0,0,1-2.093-.767,3.641,3.641,0,0,1-.689-2.47,3.669,3.669,0,0,1,.91-2.7,3.735,3.735,0,0,1,2.73-.91,9.849,9.849,0,0,1,1.69.13,8.172,8.172,0,0,1,1.235.273Zm-3.354-1.313a1.911,1.911,0,0,0,.975-.221,1.359,1.359,0,0,0,.559-.546V24.722a3.1,3.1,0,0,0-1.222-.208,1.574,1.574,0,0,0-1.222.468,2.261,2.261,0,0,0-.429,1.547,2.306,2.306,0,0,0,.364,1.443A1.184,1.184,0,0,0,69.853,28.427Zm7.724.169q-.637,0-.637-.988V20.9H75.12v7.748a1.489,1.489,0,0,0,.429,1.2,1.935,1.935,0,0,0,1.261.364,4.005,4.005,0,0,0,.975-.117,3.888,3.888,0,0,0,.741-.221l-.221-1.417a3.676,3.676,0,0,1-.39.117A2.051,2.051,0,0,1,77.577,28.6Zm7.721.78a4.024,4.024,0,0,1-1.209.585,5.455,5.455,0,0,1-1.625.234,3.2,3.2,0,0,1-2.574-.962,3.942,3.942,0,0,1-.819-2.639,3.619,3.619,0,0,1,.923-2.691,3.516,3.516,0,0,1,2.6-.923,4.148,4.148,0,0,1,1.079.143,2.473,2.473,0,0,1,.949.455,2.154,2.154,0,0,1,.663.858,3.012,3.012,0,0,1,.26,1.326,5.048,5.048,0,0,1-.039.6,4.926,4.926,0,0,1-.1.676h-4.55a1.967,1.967,0,0,0,.507,1.313,2.14,2.14,0,0,0,1.469.416A3.282,3.282,0,0,0,83.92,28.6a3.4,3.4,0,0,0,.754-.364Zm-2.73-4.966a1.513,1.513,0,0,0-1.2.442,1.856,1.856,0,0,0-.455,1.1h2.938a1.637,1.637,0,0,0-.26-1.131A1.2,1.2,0,0,0,82.568,24.41Zm9.413-3.575a12.773,12.773,0,0,0-1.3.156V30h1.924V26.932q.078.013.234.026l.325.026h.559a5.924,5.924,0,0,0,1.417-.169,3.755,3.755,0,0,0,1.222-.559,2.776,2.776,0,0,0,.871-.975,3.089,3.089,0,0,0,.325-1.469,2.846,2.846,0,0,0-.377-1.56,2.617,2.617,0,0,0-.975-.923,3.632,3.632,0,0,0-1.326-.442,9.407,9.407,0,0,0-1.469-.117Q92.7,20.77,91.981,20.835Zm1.027,1.638q.26-.013.533-.013a4.868,4.868,0,0,1,.715.052,1.964,1.964,0,0,1,.637.195,1.138,1.138,0,0,1,.455.4,1.156,1.156,0,0,1,.169.663,1.512,1.512,0,0,1-.182.793,1.345,1.345,0,0,1-.481.455,1.762,1.762,0,0,1-.663.221,5.506,5.506,0,0,1-.754.052h-.182a1.893,1.893,0,0,0-.234-.013l-.247-.026a1.429,1.429,0,0,1-.169-.026v-2.7A2.189,2.189,0,0,1,93.008,22.473ZM101.33,28.6a2.055,2.055,0,0,0,.338-.026,3.634,3.634,0,0,0,.39-.117l.221,1.417a3.874,3.874,0,0,1-.741.221,4.005,4.005,0,0,1-.975.117,1.935,1.935,0,0,1-1.261-.364,1.489,1.489,0,0,1-.429-1.2V20.9h1.82v6.708Q100.693,28.6,101.33,28.6Zm3.249-5.382a6.877,6.877,0,0,0-1.43.429l.481,1.378a5.2,5.2,0,0,1,1.04-.364,4.823,4.823,0,0,1,1.222-.156,1.361,1.361,0,0,1,.923.234.959.959,0,0,1,.247.728,3.383,3.383,0,0,1-.039.468q-.143-.026-.507-.078a4.137,4.137,0,0,0-.728-.065,3.84,3.84,0,0,0-2.353.6,2.055,2.055,0,0,0-.767,1.742,1.992,1.992,0,0,0,.156.793,2.087,2.087,0,0,0,.455.637,2.149,2.149,0,0,0,.7.4,2.784,2.784,0,0,0,.91.143,2.492,2.492,0,0,0,1.339-.325,3.091,3.091,0,0,0,.858-.78h.156l.3,1.014h1.482a5.009,5.009,0,0,1-.208-.9,7.038,7.038,0,0,1-.065-.962q0-.728.052-1.378t.052-1.313a3.485,3.485,0,0,0-.13-.988,1.759,1.759,0,0,0-.4-.767,1.783,1.783,0,0,0-.78-.494,3.643,3.643,0,0,0-1.2-.169A9.123,9.123,0,0,0,104.579,23.214Zm1.924,5.148a1.536,1.536,0,0,1-.975.286,1.081,1.081,0,0,1-.728-.234.9.9,0,0,1-.26-.7.746.746,0,0,1,.338-.624,1.7,1.7,0,0,1,1.04-.26c.087,0,.182,0,.286.013s.221.022.325.039.212.035.3.052a1.189,1.189,0,0,1,.208.052v.78A1.98,1.98,0,0,1,106.5,28.362Zm6.735-1.4.286,1.092h.13l.247-1.092,1.157-3.783h1.859l-2.262,6.175q-.285.767-.546,1.378a5.208,5.208,0,0,1-.546,1.04,2.166,2.166,0,0,1-.676.65,1.575,1.575,0,0,1-.871.234,3.177,3.177,0,0,1-.65-.065,1.754,1.754,0,0,1-.52-.169l.377-1.4a1.27,1.27,0,0,0,.4.065,1.548,1.548,0,0,0,.351-.039.753.753,0,0,0,.312-.156.949.949,0,0,0,.26-.312,1.8,1.8,0,0,0,.221-.533l-3.12-6.864h2.2Z" transform="translate(1168 260)" fill="#b0bfc7" fill-rule="evenodd"/>
    <text id="Get_it_on" data-name="Get it on" transform="translate(1210 274)" fill="#b0bfc7" font-size="8" font-family="SegoeUI, Segoe UI"><tspan x="0" y="0">Get it on</tspan></text>
  </g>
</svg>
