<svg id="Layer_2" data-name="Layer 2" xmlns="http://www.w3.org/2000/svg" width="24" height="24" viewBox="0 0 24 24">
  <g id="Layer_1" data-name="Layer 1" transform="translate(0)">
    <path id="Path_22" data-name="Path 22" d="M126.582,124.3a2.3,2.3,0,1,1-2.3-2.3,2.3,2.3,0,0,1,2.3,2.3Z" transform="translate(-112.286 -112.295)" fill="#b0bfc7"/>
    <path id="Path_23" data-name="Path 23" d="M90.848,81.416a2.281,2.281,0,0,0-1.3-1.307,3.829,3.829,0,0,0-1.279-.239c-.727-.033-.945-.041-2.783-.041s-2.057.007-2.783.04a3.8,3.8,0,0,0-1.278.239,2.285,2.285,0,0,0-1.312,1.308A3.841,3.841,0,0,0,79.87,82.7c-.033.726-.04.944-.04,2.783s.007,2.058.04,2.783a3.8,3.8,0,0,0,.239,1.279,2.147,2.147,0,0,0,.516.8,2.124,2.124,0,0,0,.8.515,3.8,3.8,0,0,0,1.278.239c.727.033.945.041,2.783.041s2.058-.007,2.783-.041a3.765,3.765,0,0,0,1.279-.239,2.283,2.283,0,0,0,1.306-1.307,3.866,3.866,0,0,0,.239-1.279c.033-.726.041-.944.041-2.783s-.007-2.057-.041-2.783A3.85,3.85,0,0,0,90.848,81.416Zm-5.37,7.6a3.537,3.537,0,1,1,3.537-3.537,3.537,3.537,0,0,1-3.537,3.537Zm3.677-6.389a.827.827,0,1,1,.826-.826A.827.827,0,0,1,89.155,82.626Z" transform="translate(-73.478 -73.478)" fill="#b0bfc7" opacity="0.66"/>
    <path id="Path_24" data-name="Path 24" d="M12,0A12,12,0,1,0,24,12,12,12,0,0,0,12,0Zm6.851,14.841a5.078,5.078,0,0,1-.318,1.67,3.523,3.523,0,0,1-2.019,2.021,5.022,5.022,0,0,1-1.67.318c-.731.032-.97.042-2.841.042s-2.105-.009-2.841-.042a5.07,5.07,0,0,1-1.67-.318,3.526,3.526,0,0,1-2.016-2.016,5,5,0,0,1-.318-1.67c-.031-.731-.041-.97-.041-2.841s.008-2.106.041-2.841a5.074,5.074,0,0,1,.318-1.67A3.523,3.523,0,0,1,7.486,5.471a5.007,5.007,0,0,1,1.67-.318c.731-.031.97-.041,2.841-.041s2.106.008,2.841.041a5.09,5.09,0,0,1,1.67.318,3.521,3.521,0,0,1,2.023,2.015,5.027,5.027,0,0,1,.318,1.67c.032.731.041.97.041,2.841S18.883,14.106,18.851,14.841Z" transform="translate(0)" fill="#b0bfc7"/>
  </g>
</svg>
