<svg xmlns="http://www.w3.org/2000/svg" width="113.874" height="33.206" viewBox="0 0 113.874 33.206">
  <g id="Layer_1" data-name="Layer 1" transform="translate(0 0)">
    <path id="Path_60" data-name="Path 60" d="M275.65,23.146l-4.71,5.8h-1.987l5.971-7.279-4.151-8.47h-4.248c-2.455,0-3.813,1.258-4.054,3.76l-.231,2.281h5.426l-.124,1.091h-5.419c-.248,2.509-.535,5.018-.749,7.523H267.3l-.1,1.094H257.59l.02-.2c.388-4.088.756-8.175,1.147-12.26.284-2.93,2.7-4.379,5.352-4.379h10.169l3.455,7.025,5.54-7.025h1.987l-6.794,8.513,4.091,8.329H278.5Z" transform="translate(-171.387 -8.012)" fill="#b0bfc7" fill-rule="evenodd"/>
    <path id="Path_61" data-name="Path 61" d="M221.92,31.36,221,41.041h-3.77l1.02-10.761h.161c1.947,0,4.981.03,6.928.03,2.154,0,4.278.5,4.031,3.108-.207,2.188-.452,4.372-.649,6.56-.027.3-.054.6-.084.9v.164H224.9l.017-.2q.335-3.171.619-6.356a4.565,4.565,0,0,0-.107-2.342c-.468-.776-2.027-.789-2.8-.789Z" transform="translate(-144.528 -20.11)" fill="#b0bfc7" fill-rule="evenodd"/>
    <path id="Path_62" data-name="Path 62" d="M184.694,39.957c.161-1.6.291-3.2.465-4.807h-1.08a3.312,3.312,0,0,0-3.051,2.061c-.458,1.188-.077,2.76,1.418,2.76Zm.569-5.851a3.859,3.859,0,0,0-.114-1.977c-.455-.789-1.847-.8-2.616-.8h-2.308l.1-1.05h4.757c2.154,0,4.278.5,4.031,3.108-.238,2.489-.5,4.971-.726,7.46v.164H179.52c-2.194,0-2.867-2.275-2.181-4.054a4.606,4.606,0,0,1,4.228-2.85Z" transform="translate(-117.809 -20.11)" fill="#b0bfc7" fill-rule="evenodd"/>
    <path id="Path_63" data-name="Path 63" d="M152.946,41.011h-5.764c-3.4,0-4.419-3.532-3.345-6.279a7.192,7.192,0,0,1,6.6-4.452h4.212l-.1,1.05h-1.6a5.874,5.874,0,0,0-5.382,3.643c-.826,2.148-.114,4.984,2.582,4.984h3.067l-.1,1.05Z" transform="translate(-95.413 -20.11)" fill="#b0bfc7" fill-rule="evenodd"/>
    <path id="Path_64" data-name="Path 64" d="M102,28.926l.1-1.054h3.68a4.683,4.683,0,0,0,4.309-2.9c.435-1.124.448-2.847-.709-3.559-.88-.542-2.489-.251-3.479-.505a2.8,2.8,0,0,1-1.365-.8,4.2,4.2,0,0,1-.565-4.305,5.961,5.961,0,0,1,5.466-3.68h4.573l-.1,1.05h-1.873a4.683,4.683,0,0,0-4.309,2.9c-.512,1.315-.462,3.345,1.141,3.85a9.7,9.7,0,0,0,2.184.107c2.823,0,3.68,2.927,2.79,5.212a5.954,5.954,0,0,1-5.463,3.68H102Z" transform="translate(-67.843 -8.025)" fill="#b0bfc7" fill-rule="evenodd"/>
    <path id="Path_65" data-name="Path 65" d="M30.52,5.444l.244-.027a.1.1,0,0,1,.03.194A40.217,40.217,0,0,0,26,6.689c-.231-.177-.468-.351-.709-.515,1.726-.335,3.369-.518,5.225-.729M8.656,30.994a22.482,22.482,0,0,0-5.529,5.727.093.093,0,1,1-.157-.1,21.437,21.437,0,0,1,4.82-6.259c.284.221.579.432.88.632" transform="translate(-1.93 -3.564)" fill="#b0bfc7" fill-rule="evenodd"/>
    <path id="Path_66" data-name="Path 66" d="M37.371,9.25l-.311.094a46.11,46.11,0,0,0-6.205,2.432,20.643,20.643,0,0,0-3.442,2.158,13.886,13.886,0,0,0-2.72,2.592c-.626.87-.937,1.7-.626,2.365a1.508,1.508,0,0,0,.151.251c.2.268.763.335,1.539.288s1.826-.217,2.94-.4l.723-.124a32.708,32.708,0,0,1,5.978-.669,3.93,3.93,0,0,1,1.673.361,1.629,1.629,0,0,1,.863.977,2.248,2.248,0,0,1-.06,1.338,5.483,5.483,0,0,1-1.188,1.937,22.078,22.078,0,0,1-3.466,3.011,38.106,38.106,0,0,1-4.73,2.863l-.769.4a58.577,58.577,0,0,0-7.64,4.419A14.913,14.913,0,0,0,37.371,9.25" transform="translate(-13.327 -6.115)" fill="#b0bfc7" fill-rule="evenodd"/>
    <path id="Path_67" data-name="Path 67" d="M11.1,22.221a47.193,47.193,0,0,0,6.553-5.77,3.737,3.737,0,0,0,.82-1.295.605.605,0,0,0-.02-.448.562.562,0,0,0-.368-.248A3.5,3.5,0,0,0,16.6,14.5c-.314.06-.806.187-1.4.335-.93.244-2.117.555-3.328.783-2.706.515-5.526.629-5.891-1.291-.3-1.555.692-3.188,2.191-4.666a25.473,25.473,0,0,1,7.282-4.75A39.807,39.807,0,0,1,23.24,2.492,14.916,14.916,0,0,0,5.768,26.66c1.673-1.579,3.526-3.011,5.335-4.439" transform="translate(0.108 0.121)" fill="#b0bfc7" fill-rule="evenodd"/>
  </g>
</svg>
