<svg id="Layer_2" data-name="Layer 2" xmlns="http://www.w3.org/2000/svg" width="189.855" height="44" viewBox="0 0 189.855 44">
  <g id="Layer_2-2" data-name="Layer 2">
    <path id="Path_354" data-name="Path 354" d="M5.27,21.481,18.162,8.589l-5.21-5.183L16.384,0l14.23,14.23L27.208,17.6l-5.157-5.157L9.16,25.37Z" transform="translate(-0.632)" fill="#2aabe5"/>
    <path id="Path_355" data-name="Path 355" d="M21.481,21.24,8.589,34.123,3.406,28.949,0,32.354,14.23,46.549l3.37-3.37-5.122-5.166L25.37,25.121Z" transform="translate(0 -2.549)" fill="#2aabe5"/>
    <path id="Path_356" data-name="Path 356" d="M53.54,21.77H49.5V32.454H45.647V21.77H41.59V18.4H53.54Z" transform="translate(-4.991 -2.208)" fill="#2aabe5"/>
    <path id="Path_357" data-name="Path 357" d="M66.774,29.088V32.45H56.76V18.37H66.6v3.37H60.623v1.98h5.148v3.124h-5.1v2.218Z" transform="translate(-6.811 -2.204)" fill="#2aabe5"/>
    <path id="Path_358" data-name="Path 358" d="M69.06,25.279a6.855,6.855,0,0,1,.493-2.526,7.19,7.19,0,0,1,1.408-2.244,6.987,6.987,0,0,1,2.27-1.593,7.2,7.2,0,0,1,3.018-.607,7.084,7.084,0,0,1,3.52.88A5.447,5.447,0,0,1,82,21.416l-2.948,2.094a2.411,2.411,0,0,0-.739-1.074,2.843,2.843,0,0,0-1.056-.528,4.338,4.338,0,0,0-1.091-.15,3.027,3.027,0,0,0-1.434.326,2.957,2.957,0,0,0-.994.88,3.907,3.907,0,0,0-.572,1.188,4.752,4.752,0,0,0-.185,1.3,4.664,4.664,0,0,0,.211,1.408,4,4,0,0,0,.634,1.2,2.878,2.878,0,0,0,1.021.818,2.974,2.974,0,0,0,1.355.3,3.652,3.652,0,0,0,1.091-.167,2.9,2.9,0,0,0,1.012-.546,2.323,2.323,0,0,0,.686-1l3.15,1.874a4.11,4.11,0,0,1-1.39,1.76,6.97,6.97,0,0,1-2.191,1.021,7.92,7.92,0,0,1-2.438.387,6.424,6.424,0,0,1-2.86-.625,7.1,7.1,0,0,1-2.235-1.663,7.638,7.638,0,0,1-1.452-2.332,7.084,7.084,0,0,1-.519-2.6Z" transform="translate(-8.287 -2.197)" fill="#2aabe5"/>
    <path id="Path_359" data-name="Path 359" d="M97.906,18.4v14.08H94.042V26.95H89.334v5.5H85.48V18.37h3.854v5.192h4.708V18.4Z" transform="translate(-10.258 -2.204)" fill="#2aabe5"/>
    <path id="Path_360" data-name="Path 360" d="M106.2,25.542V32.45H102.34V18.37h3.01l5.641,7.146V18.4h3.854v14.08h-3.062Z" transform="translate(-12.281 -2.204)" fill="#2aabe5"/>
    <path id="Path_361" data-name="Path 361" d="M125.523,32.541a6.943,6.943,0,0,1-2.9-.6,7.216,7.216,0,0,1-2.253-1.584,7.445,7.445,0,0,1-1.434-2.341,7.111,7.111,0,0,1-.5-2.64,6.715,6.715,0,0,1,.537-2.64,7.463,7.463,0,0,1,1.487-2.27,7.04,7.04,0,0,1,2.279-1.575,7.207,7.207,0,0,1,2.878-.572,6.82,6.82,0,0,1,2.913.607,6.908,6.908,0,0,1,2.235,1.628,7.674,7.674,0,0,1,1.434,2.306,7.119,7.119,0,0,1,.5,2.64,6.934,6.934,0,0,1-.519,2.64,7.3,7.3,0,0,1-1.5,2.218,7.128,7.128,0,0,1-2.27,1.584A6.987,6.987,0,0,1,125.523,32.541Zm-3.186-7.119a4.752,4.752,0,0,0,.2,1.417,3.757,3.757,0,0,0,.59,1.188,2.79,2.79,0,0,0,1,.827,3.027,3.027,0,0,0,1.434.308,3.115,3.115,0,0,0,1.443-.317,2.693,2.693,0,0,0,.994-.88,3.713,3.713,0,0,0,.572-1.206,4.673,4.673,0,0,0,.194-1.355,5.006,5.006,0,0,0-.194-1.364,4.03,4.03,0,0,0-.6-1.179,2.719,2.719,0,0,0-1.012-.818,3.15,3.15,0,0,0-1.426-.3,3.054,3.054,0,0,0-1.434.317,2.983,2.983,0,0,0-.994.88,3.52,3.52,0,0,0-.581,1.188,4.672,4.672,0,0,0-.194,1.294Z" transform="translate(-14.212 -2.198)" fill="#2aabe5"/>
    <path id="Path_362" data-name="Path 362" d="M136.5,32.45V18.37h3.854V29.088h6.371V32.45Z" transform="translate(-16.38 -2.204)" fill="#2aabe5"/>
    <path id="Path_363" data-name="Path 363" d="M155.672,32.547a6.943,6.943,0,0,1-2.9-.6,7.04,7.04,0,0,1-2.244-1.584,7.313,7.313,0,0,1-1.452-2.3,7.11,7.11,0,0,1-.5-2.64,6.714,6.714,0,0,1,.537-2.64,7.322,7.322,0,0,1,1.5-2.27,7.04,7.04,0,0,1,2.27-1.575,7.207,7.207,0,0,1,2.878-.572,6.82,6.82,0,0,1,5.148,2.235,7.674,7.674,0,0,1,1.434,2.306,7.119,7.119,0,0,1,.5,2.64,6.767,6.767,0,0,1-.519,2.64,7.3,7.3,0,0,1-1.487,2.174,6.97,6.97,0,0,1-5.157,2.165Zm-3.2-7.119a4.754,4.754,0,0,0,.2,1.373,3.758,3.758,0,0,0,.589,1.187,2.79,2.79,0,0,0,1,.827,3.054,3.054,0,0,0,1.434.308,3.089,3.089,0,0,0,1.443-.317,2.789,2.789,0,0,0,1-.88,3.9,3.9,0,0,0,.572-1.206,4.989,4.989,0,0,0,.185-1.355A4.69,4.69,0,0,0,158.708,24a3.828,3.828,0,0,0-.6-1.179,2.763,2.763,0,0,0-1-.818,3.2,3.2,0,0,0-1.426-.3,3.027,3.027,0,0,0-1.434.317,2.931,2.931,0,0,0-1,.88,3.52,3.52,0,0,0-.581,1.188,4.672,4.672,0,0,0-.194,1.338Z" transform="translate(-17.828 -2.204)" fill="#2aabe5"/>
    <path id="Path_364" data-name="Path 364" d="M172.614,32.537a6.978,6.978,0,0,1-2.64-.484,6.459,6.459,0,0,1-2.191-1.426,6.8,6.8,0,0,1-1.5-2.27,8.122,8.122,0,0,1-.537-3.062,6.776,6.776,0,0,1,.554-2.746,6.987,6.987,0,0,1,1.531-2.226,6.882,6.882,0,0,1,2.279-1.5,7.348,7.348,0,0,1,2.834-.537,7.128,7.128,0,0,1,3.441.827,5.341,5.341,0,0,1,2.3,2.244l-2.869,2.191a3.186,3.186,0,0,0-1.25-1.329,3.274,3.274,0,0,0-1.76-.51,2.9,2.9,0,0,0-1.267.282,3.106,3.106,0,0,0-.994.766,3.52,3.52,0,0,0-.651,1.179,4.558,4.558,0,0,0-.229,1.5,4.5,4.5,0,0,0,.238,1.5,3.441,3.441,0,0,0,.66,1.153,2.9,2.9,0,0,0,1.021.757,3.23,3.23,0,0,0,1.329.264,3.6,3.6,0,0,0,1.76-.466,5.28,5.28,0,0,0,1.54-1.311v3.758A5.28,5.28,0,0,1,172.614,32.537Zm3.467-4.822h-2.64V24.96h5.782v7.48h-3.186Z" transform="translate(-19.89 -2.195)" fill="#2aabe5"/>
    <path id="Path_365" data-name="Path 365" d="M183.27,32.45V18.37h3.854V32.45Z" transform="translate(-21.992 -2.204)" fill="#2aabe5"/>
    <path id="Path_366" data-name="Path 366" d="M200.4,29.088V32.45H190.39V18.37h9.838v3.37h-5.975v1.98h5.1v3.124h-5.1v2.218Z" transform="translate(-22.847 -2.204)" fill="#2aabe5"/>
    <path id="Path_367" data-name="Path 367" d="M212.193,22.992a13.033,13.033,0,0,0-1.232-.642,11.216,11.216,0,0,0-1.206-.44,4.4,4.4,0,0,0-1.285-.2,1.822,1.822,0,0,0-.81.158.546.546,0,0,0-.317.528.669.669,0,0,0,.317.572,3.362,3.362,0,0,0,.88.387l1.4.431a12.109,12.109,0,0,1,2.253.88,3.916,3.916,0,0,1,1.461,1.3,3.828,3.828,0,0,1,.519,2.112,4.347,4.347,0,0,1-.458,2.1,3.669,3.669,0,0,1-1.223,1.364,5.5,5.5,0,0,1-1.76.739,8.378,8.378,0,0,1-1.936.22,11.889,11.889,0,0,1-2.112-.2,13.94,13.94,0,0,1-2.121-.581,10.894,10.894,0,0,1-1.883-.88l1.663-3.388a16.2,16.2,0,0,0,1.443.774,12.02,12.02,0,0,0,1.452.528,5.676,5.676,0,0,0,1.619.238,1.76,1.76,0,0,0,.88-.158.493.493,0,0,0,.246-.422.722.722,0,0,0-.44-.642,6.891,6.891,0,0,0-1.135-.431c-.466-.132-.986-.3-1.558-.475a8.8,8.8,0,0,1-1.962-.915,3.379,3.379,0,0,1-1.17-1.232,3.775,3.775,0,0,1-.37-1.76,4.4,4.4,0,0,1,.73-2.6,4.646,4.646,0,0,1,1.927-1.575,6.213,6.213,0,0,1,2.578-.546,8.211,8.211,0,0,1,1.989.246,13.138,13.138,0,0,1,1.76.607c.563.238,1.056.458,1.478.669Z" transform="translate(-24.322 -2.189)" fill="#2aabe5"/>
  </g>
</svg>
