<svg id="youtube" xmlns="http://www.w3.org/2000/svg" width="24" height="24" viewBox="0 0 24 24">
  <path id="Path_74" data-name="Path 74" d="M224.113,212.974l4.284-2.468-4.284-2.468Zm0,0" transform="translate(-213.807 -198.507)" fill="#b0bfc7"/>
  <path id="Path_75" data-name="Path 75" d="M12,0A12,12,0,1,0,24,12,12,12,0,0,0,12,0Zm7.5,12.012a19.806,19.806,0,0,1-.309,3.607,1.879,1.879,0,0,1-1.322,1.322A45.61,45.61,0,0,1,12,17.25a43.977,43.977,0,0,1-5.868-.321,1.879,1.879,0,0,1-1.322-1.322A19.719,19.719,0,0,1,4.5,12a19.793,19.793,0,0,1,.309-3.607A1.917,1.917,0,0,1,6.132,7.059,45.61,45.61,0,0,1,12,6.75a43.884,43.884,0,0,1,5.868.321,1.879,1.879,0,0,1,1.322,1.322,18.8,18.8,0,0,1,.309,3.619Zm0,0" fill="#b0bfc7"/>
</svg>
